<svg version="1.1" id="Layer_1" xmlns="http://www.w3.org/2000/svg" xmlns:xlink="http://www.w3.org/1999/xlink" x="0px" y="0px"
	 width="100%" viewBox="0 0 3410 3410" enable-background="new 0 0 3410 3410" xml:space="preserve">
<path fill="#000000" opacity="1.000000" stroke="none" 
	d="
M2224.000000,3412.000000 
	C1482.666870,3412.000000 742.333801,3412.000000 2.000496,3412.000000 
	C2.000331,2275.333984 2.000331,1138.667847 2.000165,2.001259 
	C1138.665771,2.000839 2275.331543,2.000839 3411.998047,2.000420 
	C3411.998535,1138.665405 3411.998535,2275.330811 3411.999268,3411.998047 
	C3016.333252,3412.000000 2620.666748,3412.000000 2224.000000,3412.000000 
M2565.271729,1471.000122 
	C2565.271729,1297.522949 2565.271729,1124.045898 2565.271729,950.311218 
	C2559.210205,950.311218 2554.224365,949.961853 2549.304199,950.381409 
	C2537.732666,951.368225 2526.204590,952.856018 2514.637207,953.899109 
	C2491.797363,955.958496 2469.272461,960.085266 2447.404785,966.707092 
	C2381.173340,986.762512 2322.139160,1019.609924 2271.701904,1067.418701 
	C2242.791992,1094.822021 2217.388672,1125.026245 2196.433594,1158.959717 
	C2167.590088,1205.667358 2148.615479,1256.131226 2139.781982,1310.219727 
	C2136.260010,1331.785522 2132.858398,1353.694458 2132.812744,1375.454102 
	C2132.397949,1573.765137 2132.740479,1772.077637 2132.796143,1970.389771 
	C2132.796875,1972.392090 2131.914795,1974.394531 2131.309082,1976.976318 
	C2129.554199,1975.772583 2128.593506,1975.377930 2128.006348,1974.672485 
	C2107.997314,1950.639282 2088.057617,1926.548706 2068.036865,1902.525269 
	C2042.266235,1871.602295 2016.412354,1840.748535 1990.637207,1809.829224 
	C1969.968140,1785.034912 1949.396118,1760.160034 1928.721191,1735.370728 
	C1905.701294,1707.769775 1882.585693,1680.248779 1859.563965,1652.649658 
	C1838.892334,1627.867798 1818.313965,1603.008301 1797.652344,1578.218018 
	C1778.687744,1555.463745 1759.650635,1532.770020 1740.675781,1510.024292 
	C1722.774780,1488.565796 1704.942139,1467.050537 1687.027588,1445.603394 
	C1665.488525,1419.817383 1643.853394,1394.111572 1622.338745,1368.305298 
	C1607.431641,1350.424194 1592.754761,1332.350708 1577.803467,1314.506958 
	C1551.520386,1283.139282 1525.132202,1251.859497 1498.738403,1220.584961 
	C1477.917114,1195.913452 1457.072144,1171.261353 1436.139404,1146.684326 
	C1422.943726,1131.191528 1410.848145,1115.183350 1402.519409,1096.263550 
	C1390.813599,1069.672119 1382.054932,1042.155762 1374.558838,1014.228210 
	C1366.995850,986.051147 1360.241821,957.671997 1358.057251,928.387146 
	C1356.626221,909.204590 1354.407837,890.074768 1352.246826,870.954712 
	C1350.762085,857.819092 1349.215454,844.662476 1346.922974,831.651489 
	C1339.967407,792.173950 1326.505127,754.617249 1312.346069,717.295654 
	C1311.590576,715.304138 1310.207520,713.550659 1309.184692,711.802795 
	C1307.872559,712.289368 1307.048828,712.334839 1306.683594,712.767395 
	C1277.238647,747.645020 1246.212036,781.061951 1213.979126,813.370605 
	C1198.680908,828.704651 1182.509155,843.292603 1168.381104,859.642517 
	C1138.236084,894.528320 1118.484619,934.877319 1109.322266,980.238586 
	C1108.870117,982.476135 1107.772217,984.583191 1106.975098,986.751038 
	C1102.399414,964.119385 1104.052612,942.004944 1106.676147,920.083191 
	C1109.343140,897.798279 1114.626465,875.939697 1122.986206,854.779236 
	C1121.026367,854.160217 1120.130249,853.699707 1119.198120,853.609436 
	C1105.011475,852.234741 1090.841431,850.591980 1076.625244,849.644165 
	C1054.727051,848.184204 1032.803101,846.595520 1010.876282,846.362976 
	C1003.296021,846.282593 997.440796,844.632019 991.918030,840.009705 
	C987.329163,836.168945 982.581177,832.518921 977.954712,828.722229 
	C958.417908,812.688721 938.904663,796.626526 919.374390,780.584900 
	C887.518616,754.419434 855.668213,728.247253 823.781189,702.119812 
	C819.814514,698.869629 815.639221,695.874207 809.608459,691.270508 
	C811.404968,703.185303 813.155212,712.578308 814.181702,722.049622 
	C816.506836,743.501892 818.477295,764.992615 820.587524,786.468140 
	C821.431824,795.060852 822.261169,803.655029 823.103455,812.247925 
	C824.884583,830.419006 826.739014,848.583191 828.429565,866.762695 
	C829.629456,879.666077 830.320007,892.622375 831.759827,905.496643 
	C833.692749,922.779846 832.247009,938.523193 821.679260,953.827148 
	C796.672058,990.042114 781.279297,1029.987305 780.147217,1074.691895 
	C779.920898,1083.629150 779.043945,1092.693237 777.150696,1101.413086 
	C773.839600,1116.662720 769.810242,1131.777100 765.527405,1146.789795 
	C760.158325,1165.610474 758.336426,1184.686523 761.529419,1203.926270 
	C766.420593,1233.398560 781.960938,1257.253296 803.906982,1276.643555 
	C822.571411,1293.134399 842.364319,1308.368774 861.935242,1323.807617 
	C887.706482,1344.137573 906.380737,1369.346313 916.878357,1400.591797 
	C926.743896,1429.956177 929.248657,1460.446533 930.228760,1491.007935 
	C931.115051,1518.641357 930.326355,1546.329712 930.185120,1573.993408 
	C930.163147,1578.306641 929.580872,1582.614502 929.409180,1586.930786 
	C929.342468,1588.609375 929.695312,1590.304443 930.008423,1593.572266 
	C963.678894,1552.560181 1001.788818,1519.325684 1046.087402,1493.228027 
	C1090.203735,1467.237427 1137.035645,1448.467163 1187.133545,1437.496094 
	C1236.067261,1426.779785 1324.491577,1421.151733 1336.961914,1428.772827 
	C1323.216797,1432.513672 1309.324219,1435.787598 1295.751221,1440.073608 
	C1225.668091,1462.203979 1162.999268,1497.707520 1107.743286,1546.069336 
	C1081.636475,1568.919189 1058.144897,1594.320923 1037.405884,1622.239746 
	C1011.884094,1656.597046 990.417542,1693.196899 973.841064,1732.723877 
	C959.248230,1767.520874 948.516846,1803.323364 941.762878,1840.477661 
	C936.759521,1868.001465 932.805359,1895.691528 932.755737,1923.541992 
	C932.326721,2164.187500 932.425598,2404.833984 932.398865,2645.480225 
	C932.398621,2647.996826 932.824646,2650.513184 932.977783,2652.210693 
	C1078.604370,2652.210693 1223.382202,2652.210693 1367.778198,2652.210693 
	C1368.267456,2650.901367 1368.474487,2650.606445 1368.474365,2650.311279 
	C1368.372070,2336.676025 1368.255859,2023.040894 1368.146118,1709.405640 
	C1368.145508,1707.741211 1368.228516,1706.076538 1368.288452,1704.412598 
	C1368.300537,1704.081909 1368.305054,1703.706543 1368.461548,1703.438477 
	C1368.607178,1703.188721 1368.934204,1703.022583 1369.211792,1702.878540 
	C1369.486206,1702.735962 1369.798828,1702.666992 1370.774780,1702.333374 
	C1373.830200,1705.858521 1377.130127,1709.547852 1380.302002,1713.344360 
	C1399.496826,1736.319336 1418.599121,1759.371948 1437.855591,1782.295166 
	C1457.109253,1805.215210 1476.590332,1827.944336 1495.818359,1850.885742 
	C1514.836426,1873.576782 1533.581909,1896.496216 1552.596069,1919.190674 
	C1571.184570,1941.377197 1590.029053,1963.349121 1608.637817,1985.519043 
	C1631.961670,2013.306274 1655.161865,2041.197388 1678.411255,2069.047363 
	C1696.962891,2091.270264 1715.520386,2113.488281 1734.053223,2135.727051 
	C1752.151733,2157.444092 1770.216797,2179.189697 1788.307129,2200.913574 
	C1803.839600,2219.566162 1819.386475,2238.207031 1834.928467,2256.851562 
	C1849.198608,2273.970947 1863.437866,2291.116211 1877.751221,2308.199463 
	C1893.771973,2327.320557 1909.880859,2346.367432 1925.913940,2365.478271 
	C1940.878418,2383.315430 1955.732422,2401.245850 1970.746704,2419.041016 
	C1987.261108,2438.614014 2004.057983,2457.950195 2020.449829,2477.624512 
	C2041.102173,2502.412354 2061.414062,2527.483643 2081.972656,2552.350098 
	C2107.830078,2583.625244 2133.825195,2614.786621 2159.658936,2646.081543 
	C2163.034912,2650.171143 2166.462891,2652.114990 2172.232910,2652.104004 
	C2300.554932,2651.863281 2428.877441,2651.919189 2557.199707,2651.891846 
	C2559.733154,2651.891113 2562.266357,2651.572266 2565.271729,2651.370117 
	C2565.271729,2258.114502 2565.271729,1865.557251 2565.271729,1471.000122 
z"/>
<path fill="#FEFEFE" opacity="1.000000" stroke="none" 
	d="
M2565.271729,1472.000000 
	C2565.271729,1865.557251 2565.271729,2258.114502 2565.271729,2651.370117 
	C2562.266357,2651.572266 2559.733154,2651.891113 2557.199707,2651.891846 
	C2428.877441,2651.919189 2300.554932,2651.863281 2172.232910,2652.104004 
	C2166.462891,2652.114990 2163.034912,2650.171143 2159.658936,2646.081543 
	C2133.825195,2614.786621 2107.830078,2583.625244 2081.972656,2552.350098 
	C2061.414062,2527.483643 2041.102173,2502.412354 2020.449829,2477.624512 
	C2004.057983,2457.950195 1987.261108,2438.614014 1970.746704,2419.041016 
	C1955.732422,2401.245850 1940.878418,2383.315430 1925.913940,2365.478271 
	C1909.880859,2346.367432 1893.771973,2327.320557 1877.751221,2308.199463 
	C1863.437866,2291.116211 1849.198608,2273.970947 1834.928467,2256.851562 
	C1819.386475,2238.207031 1803.839600,2219.566162 1788.307129,2200.913574 
	C1770.216797,2179.189697 1752.151733,2157.444092 1734.053223,2135.727051 
	C1715.520386,2113.488281 1696.962891,2091.270264 1678.411255,2069.047363 
	C1655.161865,2041.197388 1631.961670,2013.306274 1608.637817,1985.519043 
	C1590.029053,1963.349121 1571.184570,1941.377197 1552.596069,1919.190674 
	C1533.581909,1896.496216 1514.836426,1873.576782 1495.818359,1850.885742 
	C1476.590332,1827.944336 1457.109253,1805.215210 1437.855591,1782.295166 
	C1418.599121,1759.371948 1399.496826,1736.319336 1380.302002,1713.344360 
	C1377.130127,1709.547852 1373.830200,1705.858521 1370.774780,1702.333374 
	C1369.798828,1702.666992 1369.486206,1702.735962 1369.211792,1702.878540 
	C1368.934204,1703.022583 1368.607178,1703.188721 1368.461548,1703.438477 
	C1368.305054,1703.706543 1368.300537,1704.081909 1368.288452,1704.412598 
	C1368.228516,1706.076538 1368.145508,1707.741211 1368.146118,1709.405640 
	C1368.255859,2023.040894 1368.372070,2336.676025 1368.474365,2650.311279 
	C1368.474487,2650.606445 1368.267456,2650.901367 1367.778198,2652.210693 
	C1223.382202,2652.210693 1078.604370,2652.210693 932.977783,2652.210693 
	C932.824646,2650.513184 932.398621,2647.996826 932.398865,2645.480225 
	C932.425598,2404.833984 932.326721,2164.187500 932.755737,1923.541992 
	C932.805359,1895.691528 936.759521,1868.001465 941.762878,1840.477661 
	C948.516846,1803.323364 959.248230,1767.520874 973.841064,1732.723877 
	C990.417542,1693.196899 1011.884094,1656.597046 1037.405884,1622.239746 
	C1058.144897,1594.320923 1081.636475,1568.919189 1107.743286,1546.069336 
	C1162.999268,1497.707520 1225.668091,1462.203979 1295.751221,1440.073608 
	C1309.324219,1435.787598 1323.216797,1432.513672 1336.962769,1428.775757 
	C1324.491577,1421.151733 1236.067261,1426.779785 1187.133545,1437.496094 
	C1137.035645,1448.467163 1090.203735,1467.237427 1046.087402,1493.228027 
	C1001.788818,1519.325684 963.678894,1552.560181 930.008423,1593.572266 
	C929.695312,1590.304443 929.342468,1588.609375 929.409180,1586.930786 
	C929.580872,1582.614502 930.163147,1578.306641 930.185120,1573.993408 
	C930.326355,1546.329712 931.115051,1518.641357 930.228760,1491.007935 
	C929.248657,1460.446533 926.743896,1429.956177 916.878357,1400.591797 
	C906.380737,1369.346313 887.706482,1344.137573 861.935242,1323.807617 
	C842.364319,1308.368774 822.571411,1293.134399 803.906982,1276.643555 
	C781.960938,1257.253296 766.420593,1233.398560 761.529419,1203.926270 
	C758.336426,1184.686523 760.158325,1165.610474 765.527405,1146.789795 
	C769.810242,1131.777100 773.839600,1116.662720 777.150696,1101.413086 
	C779.043945,1092.693237 779.920898,1083.629150 780.147217,1074.691895 
	C781.279297,1029.987305 796.672058,990.042114 821.679260,953.827148 
	C832.247009,938.523193 833.692749,922.779846 831.759827,905.496643 
	C830.320007,892.622375 829.629456,879.666077 828.429565,866.762695 
	C826.739014,848.583191 824.884583,830.419006 823.103455,812.247925 
	C822.261169,803.655029 821.431824,795.060852 820.587524,786.468140 
	C818.477295,764.992615 816.506836,743.501892 814.181702,722.049622 
	C813.155212,712.578308 811.404968,703.185303 809.608459,691.270508 
	C815.639221,695.874207 819.814514,698.869629 823.781189,702.119812 
	C855.668213,728.247253 887.518616,754.419434 919.374390,780.584900 
	C938.904663,796.626526 958.417908,812.688721 977.954712,828.722229 
	C982.581177,832.518921 987.329163,836.168945 991.918030,840.009705 
	C997.440796,844.632019 1003.296021,846.282593 1010.876282,846.362976 
	C1032.803101,846.595520 1054.727051,848.184204 1076.625244,849.644165 
	C1090.841431,850.591980 1105.011475,852.234741 1119.198120,853.609436 
	C1120.130249,853.699707 1121.026367,854.160217 1122.986206,854.779236 
	C1114.626465,875.939697 1109.343140,897.798279 1106.676147,920.083191 
	C1104.052612,942.004944 1102.399414,964.119385 1106.975098,986.751038 
	C1107.772217,984.583191 1108.870117,982.476135 1109.322266,980.238586 
	C1118.484619,934.877319 1138.236084,894.528320 1168.381104,859.642517 
	C1182.509155,843.292603 1198.680908,828.704651 1213.979126,813.370605 
	C1246.212036,781.061951 1277.238647,747.645020 1306.683594,712.767395 
	C1307.048828,712.334839 1307.872559,712.289368 1309.184692,711.802795 
	C1310.207520,713.550659 1311.590576,715.304138 1312.346069,717.295654 
	C1326.505127,754.617249 1339.967407,792.173950 1346.922974,831.651489 
	C1349.215454,844.662476 1350.762085,857.819092 1352.246826,870.954712 
	C1354.407837,890.074768 1356.626221,909.204590 1358.057251,928.387146 
	C1360.241821,957.671997 1366.995850,986.051147 1374.558838,1014.228210 
	C1382.054932,1042.155762 1390.813599,1069.672119 1402.519409,1096.263550 
	C1410.848145,1115.183350 1422.943726,1131.191528 1436.139404,1146.684326 
	C1457.072144,1171.261353 1477.917114,1195.913452 1498.738403,1220.584961 
	C1525.132202,1251.859497 1551.520386,1283.139282 1577.803467,1314.506958 
	C1592.754761,1332.350708 1607.431641,1350.424194 1622.338745,1368.305298 
	C1643.853394,1394.111572 1665.488525,1419.817383 1687.027588,1445.603394 
	C1704.942139,1467.050537 1722.774780,1488.565796 1740.675781,1510.024292 
	C1759.650635,1532.770020 1778.687744,1555.463745 1797.652344,1578.218018 
	C1818.313965,1603.008301 1838.892334,1627.867798 1859.563965,1652.649658 
	C1882.585693,1680.248779 1905.701294,1707.769775 1928.721191,1735.370728 
	C1949.396118,1760.160034 1969.968140,1785.034912 1990.637207,1809.829224 
	C2016.412354,1840.748535 2042.266235,1871.602295 2068.036865,1902.525269 
	C2088.057617,1926.548706 2107.997314,1950.639282 2128.006348,1974.672485 
	C2128.593506,1975.377930 2129.554199,1975.772583 2131.309082,1976.976318 
	C2131.914795,1974.394531 2132.796875,1972.392090 2132.796143,1970.389771 
	C2132.740479,1772.077637 2132.397949,1573.765137 2132.812744,1375.454102 
	C2132.858398,1353.694458 2136.260010,1331.785522 2139.781982,1310.219727 
	C2148.615479,1256.131226 2167.590088,1205.667358 2196.433594,1158.959717 
	C2217.388672,1125.026245 2242.791992,1094.822021 2271.701904,1067.418701 
	C2322.139160,1019.609924 2381.173340,986.762512 2447.404785,966.707092 
	C2469.272461,960.085266 2491.797363,955.958496 2514.637207,953.899109 
	C2526.204590,952.856018 2537.732666,951.368225 2549.304199,950.381409 
	C2554.224365,949.961853 2559.210205,950.311218 2565.271729,950.311218 
	C2565.271729,1124.045898 2565.271729,1297.522949 2565.271729,1472.000000 
z"/>
</svg>